<svg width="301" height="45" viewBox="0 0 301 45" fill="none" xmlns="http://www.w3.org/2000/svg">
<rect width="301" height="45" rx="6" fill="#FEE500"/>
<g clip-path="url(#clip0_1_221)">
<path fill-rule="evenodd" clip-rule="evenodd" d="M23 14.1C18.0292 14.1 14 17.2129 14 21.0523C14 23.44 15.5584 25.5449 17.9315 26.7969L16.933 30.4445C16.8448 30.7668 17.2134 31.0237 17.4965 30.8369L21.8733 27.9482C22.2427 27.9838 22.6181 28.0046 23 28.0046C27.9705 28.0046 31.9999 24.8918 31.9999 21.0523C31.9999 17.2129 27.9705 14.1 23 14.1Z" fill="black"/>
</g>
<path d="M125.797 16.75C125.781 20.875 124.516 24.5469 119.406 27.0625L118.594 25.9531C121.125 24.7109 122.633 23.2031 123.469 21.4219L118.891 21.8594L118.672 20.5781L123.922 20.2188C124.133 19.5078 124.258 18.75 124.312 17.9531H119.406V16.75H125.797ZM129.422 15.3281V20.9219H131.594V22.1406H129.422V29.3125H127.937V15.3281H129.422ZM138.825 16.75C138.809 20.875 137.544 24.5469 132.434 27.0625L131.622 25.9531C134.153 24.7109 135.661 23.2031 136.497 21.4219L131.919 21.8594L131.7 20.5781L136.95 20.2188C137.161 19.5078 137.286 18.75 137.341 17.9531H132.434V16.75H138.825ZM142.45 15.3281V20.9219H144.622V22.1406H142.45V29.3125H140.966V15.3281H142.45ZM150.947 16.1719C153.947 16.1875 156.119 17.6562 156.119 19.8906C156.119 21.9922 154.298 23.375 151.681 23.5938V26.3438H157.384V27.5781H144.572V26.3438H150.212V23.5938C147.611 23.375 145.791 21.9922 145.791 19.8906C145.791 17.6562 147.962 16.1875 150.947 16.1719ZM150.947 17.3906C148.791 17.375 147.228 18.375 147.228 19.8906C147.228 21.4688 148.791 22.4375 150.947 22.4531C153.119 22.4375 154.681 21.4688 154.681 19.8906C154.681 18.375 153.119 17.375 150.947 17.3906ZM173.519 26.4062V27.6562H160.706V26.4062H166.347V23.9531H162.269V19.5H170.487V17.5312H162.237V16.3125H171.956V20.6875H163.737V22.7344H172.284V23.9531H167.816V26.4062H173.519ZM184.828 16.75V18.25C184.828 20.0625 184.828 22.0312 184.312 25.0156L182.797 24.875C183.359 22.0781 183.359 20.0156 183.359 18.25V17.9688H175.109V16.75H184.828ZM186.5 26.1094V27.3438H173.734V26.1094H186.5ZM198.372 15.3438V25.5156H196.887V15.3438H198.372ZM198.794 27.8281V29.0312H189.215V24.4844H190.715V27.8281H198.794ZM190.778 16.2812C192.887 16.2812 194.497 17.7188 194.497 19.75C194.497 21.8125 192.887 23.2344 190.778 23.2344C188.669 23.2344 187.044 21.8125 187.044 19.75C187.044 17.7188 188.669 16.2812 190.778 16.2812ZM190.778 17.5781C189.465 17.5781 188.497 18.4688 188.497 19.75C188.497 21.0625 189.465 21.9375 190.778 21.9375C192.059 21.9375 193.044 21.0625 193.044 19.75C193.044 18.4688 192.059 17.5781 190.778 17.5781Z" fill="black" fill-opacity="0.85"/>
<defs>
<clipPath id="clip0_1_221">
<rect width="17.9999" height="18" fill="white" transform="translate(14 13.5)"/>
</clipPath>
</defs>
</svg>
