<svg width="306" height="46" viewBox="0 0 306 46" fill="none" xmlns="http://www.w3.org/2000/svg">
<rect y="0.0478516" width="306" height="45" rx="6" fill="black"/>
<path d="M27.6371 31.3279C26.6571 32.2779 25.5871 32.1279 24.5571 31.6779C23.4671 31.2179 22.4671 31.1979 21.3171 31.6779C19.8771 32.2979 19.1171 32.1179 18.2571 31.3279C13.3771 26.2979 14.0971 18.6379 19.6371 18.3579C20.9871 18.4279 21.9271 19.0979 22.7171 19.1579C23.8971 18.9179 25.0271 18.2279 26.2871 18.3179C27.7971 18.4379 28.9371 19.0379 29.6871 20.1179C26.5671 21.9879 27.3071 26.0979 30.1671 27.2479C29.5971 28.7479 28.8571 30.2379 27.6271 31.3379L27.6371 31.3279ZM22.6171 18.2979C22.4671 16.0679 24.2771 14.2279 26.3571 14.0479C26.6471 16.6279 24.0171 18.5479 22.6171 18.2979Z" fill="white"/>
<path d="M120.125 30.0479H118.297L122.359 18.7354H124.344L128.422 30.0479H126.594L125.562 27.0635H121.156L120.125 30.0479ZM121.656 25.626H125.062L123.391 20.7979H123.312L121.656 25.626ZM128.919 33.2354V21.5635H130.544V22.9385H130.684C130.981 22.4072 131.559 21.4541 133.122 21.4541C135.169 21.4541 136.684 23.0635 136.684 25.8291C136.684 28.5635 135.2 30.2197 133.137 30.2197C131.591 30.2197 130.981 29.2822 130.684 28.7197H130.591V33.2354H128.919ZM130.559 25.7979C130.559 27.5791 131.341 28.7979 132.762 28.7979C134.231 28.7979 134.997 27.501 134.997 25.7979C134.997 24.126 134.247 22.876 132.762 22.876C131.325 22.876 130.559 24.0322 130.559 25.7979ZM137.541 33.2354V21.5635H139.166V22.9385H139.306C139.603 22.4072 140.181 21.4541 141.744 21.4541C143.791 21.4541 145.306 23.0635 145.306 25.8291C145.306 28.5635 143.822 30.2197 141.759 30.2197C140.212 30.2197 139.603 29.2822 139.306 28.7197H139.212V33.2354H137.541ZM139.181 25.7979C139.181 27.5791 139.962 28.7979 141.384 28.7979C142.853 28.7979 143.619 27.501 143.619 25.7979C143.619 24.126 142.869 22.876 141.384 22.876C139.947 22.876 139.181 24.0322 139.181 25.7979ZM147.834 18.7354V30.0479H146.163V18.7354H147.834ZM152.722 30.2197C150.222 30.2197 148.691 28.501 148.691 25.8604C148.691 23.251 150.253 21.4541 152.612 21.4541C154.55 21.4541 156.378 22.6572 156.378 25.7197V26.3135H150.347C150.394 27.9229 151.339 28.8447 152.737 28.8447C153.691 28.8447 154.3 28.4385 154.581 27.9229H156.269C155.894 29.2979 154.581 30.2197 152.722 30.2197ZM150.362 25.0635H154.737C154.737 23.7666 153.909 22.8291 152.628 22.8291C151.292 22.8291 150.425 23.8604 150.362 25.0635ZM169.547 28.4541V29.7041H156.734V28.4541H162.375V26.001H158.297V21.5479H166.516V19.5791H158.266V18.3604H167.984V22.7354H159.766V24.7822H168.312V26.001H163.844V28.4541H169.547ZM185.681 28.4541V29.7041H172.869V28.4541H178.509V26.001H174.431V21.5479H182.65V19.5791H174.4V18.3604H184.119V22.7354H175.9V24.7822H184.447V26.001H179.978V28.4541H185.681ZM196.991 18.7979V20.2979C196.991 22.1104 196.991 24.0791 196.475 27.0635L194.959 26.9229C195.522 24.126 195.522 22.0635 195.522 20.2979V20.0166H187.272V18.7979H196.991ZM198.662 28.1572V29.3916H185.897V28.1572H198.662ZM210.534 17.3916V27.5635H209.05V17.3916H210.534ZM210.956 29.876V31.0791H201.378V26.5322H202.878V29.876H210.956ZM202.941 18.3291C205.05 18.3291 206.659 19.7666 206.659 21.7979C206.659 23.8604 205.05 25.2822 202.941 25.2822C200.831 25.2822 199.206 23.8604 199.206 21.7979C199.206 19.7666 200.831 18.3291 202.941 18.3291ZM202.941 19.626C201.628 19.626 200.659 20.5166 200.659 21.7979C200.659 23.1104 201.628 23.9854 202.941 23.9854C204.222 23.9854 205.206 23.1104 205.206 21.7979C205.206 20.5166 204.222 19.626 202.941 19.626Z" fill="white"/>
</svg>
